<mxfile host="app.diagrams.net" agent="Mozilla/5.0 (Windows NT 10.0; Win64; x64) AppleWebKit/537.36 (KHTML, like Gecko) Chrome/127.0.0.0 Safari/537.36" version="24.7.6">
  <diagram name="페이지-1" id="Oy09YMq7JXKhEEB8FjI7">
    <mxGraphModel dx="1434" dy="772" grid="1" gridSize="10" guides="1" tooltips="1" connect="1" arrows="1" fold="1" page="1" pageScale="1" pageWidth="827" pageHeight="1169" math="0" shadow="0">
      <root>
        <mxCell id="0" />
        <mxCell id="1" parent="0" />
        <mxCell id="6oBRFBxgZSd3UmwGu-zr-1" value="서버" style="whiteSpace=wrap;html=1;labelBackgroundColor=none;fillColor=#F2CC8F;strokeColor=#E07A5F;fontColor=#393C56;" parent="1" vertex="1">
          <mxGeometry x="470" y="155" width="110" height="85" as="geometry" />
        </mxCell>
        <mxCell id="PLHJU6RH4WrfTBuvKlq1-2" value="&lt;font style=&quot;font-size: 18px;&quot;&gt;서버 프로그래밍 설계&lt;/font&gt;" style="text;strokeColor=none;align=center;fillColor=none;html=1;verticalAlign=middle;whiteSpace=wrap;rounded=0;labelBackgroundColor=none;fontColor=#393C56;" vertex="1" parent="1">
          <mxGeometry x="300" y="30" width="200" height="30" as="geometry" />
        </mxCell>
        <mxCell id="PLHJU6RH4WrfTBuvKlq1-8" value="클라이언트" style="rounded=0;whiteSpace=wrap;html=1;labelBackgroundColor=none;fillColor=#F2CC8F;strokeColor=#E07A5F;fontColor=#393C56;" vertex="1" parent="1">
          <mxGeometry x="30" y="162.5" width="100" height="77.5" as="geometry" />
        </mxCell>
        <mxCell id="PLHJU6RH4WrfTBuvKlq1-13" value="소켓" style="rhombus;whiteSpace=wrap;html=1;strokeColor=#E07A5F;fontColor=#393C56;fillColor=#F2CC8F;" vertex="1" parent="1">
          <mxGeometry x="420" y="178.13" width="50" height="38.75" as="geometry" />
        </mxCell>
        <mxCell id="PLHJU6RH4WrfTBuvKlq1-14" value="" style="endArrow=classic;startArrow=classic;html=1;rounded=0;strokeColor=#E07A5F;fontColor=#393C56;fillColor=#F2CC8F;" edge="1" parent="1" source="PLHJU6RH4WrfTBuvKlq1-15" target="PLHJU6RH4WrfTBuvKlq1-13">
          <mxGeometry width="50" height="50" relative="1" as="geometry">
            <mxPoint x="240" y="252.5" as="sourcePoint" />
            <mxPoint x="290" y="202.5" as="targetPoint" />
          </mxGeometry>
        </mxCell>
        <mxCell id="PLHJU6RH4WrfTBuvKlq1-16" value="" style="endArrow=classic;startArrow=classic;html=1;rounded=0;strokeColor=#E07A5F;fontColor=#393C56;fillColor=#F2CC8F;" edge="1" parent="1" source="PLHJU6RH4WrfTBuvKlq1-8" target="PLHJU6RH4WrfTBuvKlq1-15">
          <mxGeometry width="50" height="50" relative="1" as="geometry">
            <mxPoint x="150" y="226" as="sourcePoint" />
            <mxPoint x="391" y="221" as="targetPoint" />
          </mxGeometry>
        </mxCell>
        <mxCell id="PLHJU6RH4WrfTBuvKlq1-15" value="소켓" style="rhombus;whiteSpace=wrap;html=1;strokeColor=#E07A5F;fontColor=#393C56;fillColor=#F2CC8F;" vertex="1" parent="1">
          <mxGeometry x="130" y="181.25" width="50" height="40" as="geometry" />
        </mxCell>
      </root>
    </mxGraphModel>
  </diagram>
</mxfile>
